<svg width="1920" height="2549" viewBox="0 0 1920 2549" fill="none" xmlns="http://www.w3.org/2000/svg">
<rect width="1920" height="1315" fill="black"/>
<g filter="url(#filter0_f_0_1)">
<path d="M796.977 446.341C853.859 506.627 907.204 550.985 959.864 578.303C1019.35 609.242 1077.89 618.514 1139.44 604.704C1165.75 598.784 1191.25 586.808 1214.55 570.549C1301.34 510.323 1357.62 391.915 1312.28 312.741C1311.61 311.494 1310.88 310.307 1310.15 309.12C1279.04 257.654 1225.3 228.818 1159.47 227.301C1157.06 227.301 1154.59 227.301 1152.12 227.241C1104.05 226.91 1044.77 222.372 984.555 203.875C950.307 193.281 915.663 178.134 882.681 156.481C881.08 155.429 879.404 154.377 877.742 153.251C877.346 152.995 876.874 152.664 876.477 152.394C841.757 128.111 806.976 116 767.927 116C671.569 116 463.598 253.913 365.016 395.371C416.959 322.132 497.495 268.143 609.506 309.105C664.315 329.12 726.744 371.9 796.977 446.341Z" fill="#6F3FF9"/>
<path d="M609.508 309.108C497.421 268.101 416.839 322.211 364.896 395.525C363.966 396.772 363.097 398.094 362.228 399.342C360.628 401.641 359.088 403.955 357.625 406.254C356.086 408.553 354.623 410.852 353.159 413.166C247.474 582.123 371.114 718.954 485.014 718.954C593.702 718.954 637.43 665.309 705.194 570.538C730.77 534.805 759.805 493.137 796.994 446.344C726.746 371.903 664.316 329.123 609.508 309.108Z" fill="#FA4BA7"/>
<path d="M1566.57 413.165C1565.11 410.866 1563.63 408.552 1562.09 406.253C1561.02 404.54 1559.89 402.902 1558.69 401.189C1558.49 400.859 1558.29 400.588 1558.1 400.273C1557.9 399.957 1557.7 399.687 1557.5 399.356C1556.63 398.109 1555.76 396.787 1554.83 395.539C1456.3 254.036 1248.2 116.018 1151.8 116.018C1112.75 116.018 1077.97 128.129 1043.25 152.412C1042.58 152.878 1041.91 153.328 1041.25 153.734C1008.61 175.522 979.831 183.547 959.88 183.547C940.782 183.547 913.621 176.184 882.712 156.499C881.111 155.447 879.435 154.395 877.773 153.268C904.477 172.096 931.241 198.032 959.895 231C971.113 243.833 982.59 257.717 994.478 272.728C1032 319.986 1073.52 377.898 1122.8 446.359C1159.99 493.151 1189.02 534.819 1214.6 570.552C1282.36 665.324 1326.09 718.968 1434.78 718.968C1548.62 718.953 1672.26 582.122 1566.57 413.165Z" fill="#00D1FF"/>
<path d="M1312.29 312.722C1311.62 311.475 1310.89 310.287 1310.15 309.1C1279.05 257.635 1225.3 228.799 1159.48 227.281C1157.07 227.281 1154.6 227.281 1152.13 227.221C1104.06 226.891 1044.78 222.353 984.564 203.855C950.316 193.262 915.672 178.115 882.689 156.462C881.089 155.41 879.412 154.358 877.751 153.231C904.454 172.059 931.218 197.995 959.872 230.963C971.09 243.795 982.567 257.68 994.455 272.691C1031.98 319.949 1073.5 377.861 1122.77 446.322C1159.96 493.114 1189 534.782 1214.57 570.515C1301.34 510.304 1357.63 391.896 1312.29 312.722Z" fill="#518CFE"/>
</g>
<g filter="url(#filter1_d_0_1)">
<rect y="769" width="1920" height="1774" fill="url(#paint0_linear_0_1)"/>
</g>
<defs>
<filter id="filter0_f_0_1" x="-87" y="-284" width="2093.73" height="1402.97" filterUnits="userSpaceOnUse" color-interpolation-filters="sRGB">
<feFlood flood-opacity="0" result="BackgroundImageFix"/>
<feBlend mode="normal" in="SourceGraphic" in2="BackgroundImageFix" result="shape"/>
<feGaussianBlur stdDeviation="200" result="effect1_foregroundBlur_0_1"/>
</filter>
<filter id="filter1_d_0_1" x="-10" y="755" width="1940" height="1794" filterUnits="userSpaceOnUse" color-interpolation-filters="sRGB">
<feFlood flood-opacity="0" result="BackgroundImageFix"/>
<feColorMatrix in="SourceAlpha" type="matrix" values="0 0 0 0 0 0 0 0 0 0 0 0 0 0 0 0 0 0 127 0" result="hardAlpha"/>
<feOffset dy="-4"/>
<feGaussianBlur stdDeviation="5"/>
<feComposite in2="hardAlpha" operator="out"/>
<feColorMatrix type="matrix" values="0 0 0 0 0 0 0 0 0 0 0 0 0 0 0 0 0 0 0.02 0"/>
<feBlend mode="normal" in2="BackgroundImageFix" result="effect1_dropShadow_0_1"/>
<feBlend mode="normal" in="SourceGraphic" in2="effect1_dropShadow_0_1" result="shape"/>
</filter>
<linearGradient id="paint0_linear_0_1" x1="960" y1="769" x2="960" y2="2543" gradientUnits="userSpaceOnUse">
<stop stop-color="#1F2332" stop-opacity="0"/>
<stop offset="0.321081" stop-color="#1F2332"/>
</linearGradient>
</defs>
</svg>
