<svg width="46" height="46" viewBox="0 0 46 46" fill="none" xmlns="http://www.w3.org/2000/svg">
<circle cx="22.7394" cy="23.1127" r="13.6604" transform="rotate(15 22.7394 23.1127)" stroke="white" stroke-opacity="0.8" stroke-width="2"/>
<circle cx="22.7394" cy="23.1126" r="8.0436" transform="rotate(15 22.7394 23.1126)" stroke="white" stroke-opacity="0.8" stroke-width="4"/>
<path d="M22.6199 10.0714L23.6137 6.36258C23.9131 5.24532 25.0615 4.58229 26.1787 4.88165L29.2132 5.69474C30.3305 5.99411 30.9935 7.14251 30.6941 8.25977L29.7004 11.9686" stroke="white" stroke-opacity="0.8" stroke-width="2"/>
<path d="M16.1153 34.3471L15.1215 38.0559C14.8222 39.1731 15.4852 40.3215 16.6024 40.6209L19.6369 41.434C20.7542 41.7334 21.9026 41.0703 22.2019 39.9531L23.1957 36.2443" stroke="white" stroke-opacity="0.8" stroke-width="2"/>
<path d="M35.9944 22.8699L39.7032 23.8637C40.8204 24.1631 41.4834 25.3115 41.1841 26.4287L40.371 29.4632C40.0716 30.5805 38.9232 31.2435 37.806 30.9441L34.0972 29.9504" stroke="white" stroke-opacity="0.8" stroke-width="2"/>
<path d="M11.7186 16.3652L8.00986 15.3714C6.8926 15.072 5.74419 15.7351 5.44482 16.8523L4.63174 19.8868C4.33237 21.004 4.9954 22.1524 6.11266 22.4518L9.82145 23.4456" stroke="white" stroke-opacity="0.8" stroke-width="2"/>
<path d="M31.9578 13.7006L35.283 11.7808C36.2848 11.2025 37.5656 11.5457 38.144 12.5474L39.7147 15.268C40.2931 16.2697 39.9499 17.5506 38.9481 18.1289L35.6229 20.0488" stroke="white" stroke-opacity="0.8" stroke-width="2"/>
<path d="M10.1929 26.2667L6.86771 28.1865C5.866 28.7648 5.52279 30.0457 6.10112 31.0474L7.67188 33.768C8.25021 34.7697 9.53109 35.1129 10.5328 34.5346L13.858 32.6148" stroke="white" stroke-opacity="0.8" stroke-width="2"/>
<path d="M32.3649 32.2077L34.2847 35.5329C34.863 36.5346 34.5198 37.8155 33.5181 38.3938L30.7975 39.9646C29.7958 40.5429 28.5149 40.1997 27.9365 39.198L26.0167 35.8728" stroke="white" stroke-opacity="0.8" stroke-width="2"/>
<path d="M19.799 10.4427L17.8791 7.11746C17.3008 6.11576 16.0199 5.77254 15.0182 6.35088L12.2976 7.92163C11.2959 8.49997 10.9527 9.78085 11.531 10.7826L13.4508 14.1078" stroke="white" stroke-opacity="0.8" stroke-width="2"/>
</svg>
