<svg width="68" height="89" viewBox="0 0 68 89" fill="none" xmlns="http://www.w3.org/2000/svg">
<g style="mix-blend-mode:overlay">
<circle cx="37.6943" cy="26.3965" r="9.45911" transform="rotate(13.295 37.6943 26.3965)" stroke="white" stroke-opacity="0.8" stroke-width="2"/>
<circle cx="37.6943" cy="26.3964" r="4.62395" transform="rotate(13.295 37.6943 26.3964)" stroke="white" stroke-opacity="0.8" stroke-width="2"/>
<path d="M37.3324 17.099L37.9623 14.4331C38.1521 13.6301 38.9569 13.1329 39.76 13.3226L41.9412 13.838C42.7443 14.0278 43.2415 14.8327 43.0517 15.6358L42.4218 18.3016" stroke="white" stroke-opacity="0.8" stroke-width="2"/>
<path d="M33.2088 34.5482L32.5789 37.2141C32.3891 38.0172 32.8863 38.822 33.6894 39.0118L35.8706 39.5272C36.6737 39.717 37.4785 39.2198 37.6683 38.4167L38.2982 35.7508" stroke="white" stroke-opacity="0.8" stroke-width="2"/>
<path d="M47.1413 25.9419L49.8072 26.5719C50.6103 26.7616 51.1075 27.5665 50.9177 28.3696L50.4023 30.5507C50.2125 31.3538 49.4076 31.851 48.6046 31.6613L45.9387 31.0313" stroke="white" stroke-opacity="0.8" stroke-width="2"/>
<path d="M29.6921 21.8187L27.0262 21.1888C26.2231 20.999 25.4182 21.4962 25.2285 22.2993L24.7131 24.4804C24.5233 25.2835 25.0205 26.0884 25.8236 26.2782L28.4895 26.9081" stroke="white" stroke-opacity="0.8" stroke-width="2"/>
<path d="M44.0684 19.4889L46.3989 18.0493C47.101 17.6156 48.0217 17.8332 48.4554 18.5352L49.6332 20.442C50.0669 21.1441 49.8493 22.0648 49.1473 22.4984L46.8168 23.9381" stroke="white" stroke-opacity="0.8" stroke-width="2"/>
<path d="M28.8141 28.9119L26.4836 30.3515C25.7816 30.7852 25.564 31.7059 25.9977 32.408L27.1756 34.3147C27.6093 35.0168 28.53 35.2343 29.232 34.8007L31.5625 33.361" stroke="white" stroke-opacity="0.8" stroke-width="2"/>
<path d="M44.7514 32.678L46.191 35.0085C46.6247 35.7106 46.4071 36.6313 45.7051 37.0649L43.7983 38.2428C43.0963 38.6765 42.1756 38.4589 41.7419 37.7569L40.3023 35.4264" stroke="white" stroke-opacity="0.8" stroke-width="2"/>
<path d="M35.3286 17.4236L33.889 15.0931C33.4553 14.391 32.5346 14.1735 31.8326 14.6071L29.9258 15.785C29.2238 16.2187 29.0062 17.1394 29.4399 17.8414L30.8795 20.1719" stroke="white" stroke-opacity="0.8" stroke-width="2"/>
<rect x="19.6537" y="2.40633" width="47" height="75" rx="4" transform="rotate(13.295 19.6537 2.40633)" stroke="white" stroke-opacity="0.8" stroke-width="4"/>
<path d="M9.82684 39.6445L57.5136 50.9128" stroke="white" stroke-opacity="0.8" stroke-width="4"/>
<circle cx="20.5237" cy="50.9062" r="2" transform="rotate(13.295 20.5237 50.9062)" stroke="white" stroke-opacity="0.8" stroke-width="2"/>
<circle cx="18.2241" cy="60.6382" r="2" transform="rotate(13.295 18.2241 60.6382)" stroke="white" stroke-opacity="0.8" stroke-width="2"/>
<circle cx="15.9245" cy="70.3702" r="2" transform="rotate(13.295 15.9245 70.3702)" stroke="white" stroke-opacity="0.8" stroke-width="2"/>
<circle cx="32.2021" cy="53.6658" r="2" transform="rotate(13.295 32.2021 53.6658)" stroke="white" stroke-opacity="0.8" stroke-width="2"/>
<circle cx="29.9025" cy="63.3978" r="2" transform="rotate(13.295 29.9025 63.3978)" stroke="white" stroke-opacity="0.8" stroke-width="2"/>
<circle cx="27.6028" cy="73.1298" r="2" transform="rotate(13.295 27.6028 73.1298)" stroke="white" stroke-opacity="0.8" stroke-width="2"/>
<circle cx="43.8805" cy="56.4254" r="2" transform="rotate(13.295 43.8805 56.4254)" stroke="white" stroke-opacity="0.8" stroke-width="2"/>
<circle cx="41.5808" cy="66.1574" r="2" transform="rotate(13.295 41.5808 66.1574)" stroke="white" stroke-opacity="0.8" stroke-width="2"/>
<circle cx="39.2812" cy="75.8894" r="2" transform="rotate(13.295 39.2812 75.8894)" stroke="white" stroke-opacity="0.8" stroke-width="2"/>
</g>
</svg>
