<svg width="76" height="76" viewBox="0 0 76 76" fill="none" xmlns="http://www.w3.org/2000/svg">
<g style="mix-blend-mode:overlay">
<path d="M2 38.9999L12.8701 38.9999C13.4944 38.9999 14.0005 38.4938 14.0005 37.8695L14.0005 31.9998C14.0005 28.6862 16.6867 26 20.0002 26V26C23.3138 26 26 28.6862 26 31.9998L26 37.8695C26 38.4938 26.5061 38.9999 27.1304 38.9999L49.413 38.9999C50.0133 38.9999 50.5 39.4865 50.5 40.0868L50.5 45.25C50.5 48.7018 53.2982 51.5 56.75 51.5V51.5C60.2018 51.5 63 48.7018 63 45.25L63 40.0868C63 39.4865 63.4867 38.9999 64.087 38.9999L75.5 38.9999" stroke="white" stroke-opacity="0.7" stroke-width="2"/>
<path d="M39.0004 74.5L39.0004 63.6299C39.0004 63.0056 38.4943 62.4995 37.8699 62.4995L32.0002 62.4995C28.6867 62.4995 26.0005 59.8133 26.0005 56.4998V56.4998C26.0005 53.1862 28.6867 50.5 32.0002 50.5L37.8699 50.5C38.4943 50.5 39.0004 49.9939 39.0004 49.3696L39.0004 27.087C39.0004 26.4867 39.487 26 40.0873 26L45.2505 26C48.7023 26 51.5005 23.2018 51.5005 19.75V19.75C51.5005 16.2982 48.7023 13.5 45.2505 13.5L40.0873 13.5C39.487 13.5 39.0004 13.0133 39.0004 12.413L39.0004 0.999999" stroke="white" stroke-opacity="0.7" stroke-width="2"/>
<path d="M38 2C45.1201 2 52.0804 4.11136 58.0005 8.06709C63.9207 12.0228 68.5349 17.6453 71.2597 24.2234C73.9844 30.8015 74.6973 38.0399 73.3083 45.0233C71.9192 52.0066 68.4905 58.4212 63.4558 63.4558C58.4212 68.4905 52.0066 71.9192 45.0233 73.3083C38.0399 74.6973 30.8015 73.9844 24.2234 71.2597C17.6453 68.5349 12.0228 63.9207 8.06709 58.0005C4.11136 52.0804 2 45.1201 2 38" stroke="white" stroke-opacity="0.7" stroke-width="4"/>
</g>
</svg>
