<svg width="84" height="80" viewBox="0 0 84 80" fill="none" xmlns="http://www.w3.org/2000/svg">
<g style="mix-blend-mode:overlay">
<circle cx="27.5" cy="27.5" r="19.5" stroke="white" stroke-opacity="0.8" stroke-width="2"/>
<circle cx="27.5" cy="27.5" r="12.5" stroke="white" stroke-opacity="0.8" stroke-width="4"/>
<path d="M22.25 9.5V4C22.25 2.34315 23.5931 1 25.25 1H29.75C31.4069 1 32.75 2.34315 32.75 4V9.5" stroke="white" stroke-opacity="0.8" stroke-width="2"/>
<path d="M22.25 45.5V51C22.25 52.6569 23.5931 54 25.25 54H29.75C31.4069 54 32.75 52.6569 32.75 51V45.5" stroke="white" stroke-opacity="0.8" stroke-width="2"/>
<path d="M45.5 22.25L51 22.25C52.6569 22.25 54 23.5931 54 25.25L54 29.75C54 31.4069 52.6569 32.75 51 32.75L45.5 32.75" stroke="white" stroke-opacity="0.8" stroke-width="2"/>
<path d="M9.5 22.25L4 22.25C2.34315 22.25 1 23.5931 1 25.25L1 29.75C1 31.4069 2.34315 32.75 4 32.75L9.5 32.75" stroke="white" stroke-opacity="0.8" stroke-width="2"/>
<path d="M36.5157 11.0597L40.4048 7.17064C41.5764 5.99906 43.4759 5.99906 44.6474 7.17064L47.8294 10.3526C49.001 11.5242 49.001 13.4237 47.8294 14.5953L43.9403 18.4843" stroke="white" stroke-opacity="0.8" stroke-width="2"/>
<path d="M11.0597 36.5156L7.17064 40.4047C5.99906 41.5763 5.99906 43.4757 7.17064 44.6473L10.3526 47.8293C11.5242 49.0009 13.4237 49.0009 14.5953 47.8293L18.4843 43.9402" stroke="white" stroke-opacity="0.8" stroke-width="2"/>
<path d="M43.9403 36.5157L47.8294 40.4048C49.0009 41.5764 49.0009 43.4759 47.8294 44.6474L44.6474 47.8294C43.4758 49.001 41.5763 49.001 40.4047 47.8294L36.5157 43.9403" stroke="white" stroke-opacity="0.8" stroke-width="2"/>
<path d="M18.4843 11.0596L14.5952 7.17051C13.4236 5.99894 11.5241 5.99894 10.3526 7.17051L7.17058 10.3525C5.999 11.5241 5.999 13.4236 7.17058 14.5951L11.0597 18.4842" stroke="white" stroke-opacity="0.8" stroke-width="2"/>
<circle cx="60.7394" cy="57.1126" r="13.6604" transform="rotate(15 60.7394 57.1126)" stroke="white" stroke-opacity="0.8" stroke-width="2"/>
<circle cx="60.7394" cy="57.1127" r="8.0436" transform="rotate(15 60.7394 57.1127)" stroke="white" stroke-opacity="0.8" stroke-width="4"/>
<path d="M60.6199 44.0713L61.6137 40.3625C61.9131 39.2453 63.0615 38.5822 64.1787 38.8816L67.2132 39.6947C68.3305 39.994 68.9935 41.1424 68.6941 42.2597L67.7004 45.9685" stroke="white" stroke-opacity="0.8" stroke-width="2"/>
<path d="M54.1153 68.347L53.1215 72.0558C52.8221 73.1731 53.4852 74.3215 54.6024 74.6209L57.6369 75.4339C58.7542 75.7333 59.9026 75.0703 60.2019 73.953L61.1957 70.2442" stroke="white" stroke-opacity="0.8" stroke-width="2"/>
<path d="M73.9943 56.8699L77.7031 57.8637C78.8204 58.1631 79.4834 59.3115 79.184 60.4287L78.371 63.4632C78.0716 64.5805 76.9232 65.2435 75.8059 64.9441L72.0971 63.9504" stroke="white" stroke-opacity="0.8" stroke-width="2"/>
<path d="M49.7186 50.3653L46.0098 49.3715C44.8926 49.0721 43.7442 49.7352 43.4448 50.8524L42.6317 53.8869C42.3323 55.0041 42.9954 56.1525 44.1126 56.4519L47.8214 57.4457" stroke="white" stroke-opacity="0.8" stroke-width="2"/>
<path d="M69.9579 47.7007L73.2831 45.7808C74.2848 45.2025 75.5657 45.5457 76.144 46.5474L77.7147 49.2681C78.2931 50.2698 77.9499 51.5506 76.9482 52.129L73.6229 54.0488" stroke="white" stroke-opacity="0.8" stroke-width="2"/>
<path d="M48.1929 60.2668L44.8677 62.1866C43.866 62.7649 43.5228 64.0458 44.1011 65.0475L45.6719 67.7681C46.2502 68.7698 47.5311 69.113 48.5328 68.5347L51.858 66.6149" stroke="white" stroke-opacity="0.8" stroke-width="2"/>
<path d="M70.3649 66.2078L72.2847 69.533C72.863 70.5347 72.5198 71.8156 71.5181 72.3939L68.7975 73.9647C67.7958 74.543 66.5149 74.1998 65.9366 73.1981L64.0168 69.8729" stroke="white" stroke-opacity="0.8" stroke-width="2"/>
<path d="M57.799 44.4426L55.8792 41.1174C55.3008 40.1157 54.02 39.7725 53.0182 40.3508L50.2976 41.9215C49.2959 42.4999 48.9527 43.7808 49.531 44.7825L51.4509 48.1077" stroke="white" stroke-opacity="0.8" stroke-width="2"/>
</g>
</svg>
